<?xml version="1.0" encoding="utf-8"?>
<!-- Generator: Adobe Illustrator 21.0.0, SVG Export Plug-In . SVG Version: 6.00 Build 0)  -->
<svg version="1.1" id="Layer_1" xmlns="http://www.w3.org/2000/svg" xmlns:xlink="http://www.w3.org/1999/xlink" x="0px" y="0px"
	 viewBox="0 0 90 90" style="enable-background:new 0 0 90 90;" xml:space="preserve">
<style type="text/css">
	.st0{fill:#FFFFFF;}
</style>
<g>
	<path class="st0" d="M8.1,43.5c0.5,0,1-0.2,1.4-0.6l7.5-7.5c1,0.6,2.2,0.9,3.5,0.9c1.4,0,2.8-0.4,3.9-1.2l6.6,5.7
		c-0.4,0.9-0.7,2-0.7,3c0,4,3.2,7.2,7.2,7.2s7.2-3.2,7.2-7.2c0-2.2-1-4.2-2.6-5.5l6.1-13.8c0.3,0,0.6,0.1,1,0.1
		c1.9,0,3.6-0.7,4.8-1.9l6.9,4.3c-0.2,0.6-0.3,1.3-0.3,2c0,4,3.2,7.2,7.2,7.2s7.2-3.2,7.2-7.2c0-1.3-0.3-2.5-0.9-3.5l9.2-9.2
		c0.8-0.8,0.8-2,0-2.8c-0.8-0.8-2-0.8-2.8,0l-9.2,9.2c-1-0.6-2.2-0.9-3.5-0.9c-1.9,0-3.5,0.7-4.8,1.9l-6.9-4.3
		c0.2-0.6,0.3-1.3,0.3-2c0-4-3.2-7.2-7.2-7.2s-7.2,3.2-7.2,7.2c0,2.2,1,4.2,2.6,5.5l-6.1,13.8c-0.3,0-0.6-0.1-1-0.1
		c-1.4,0-2.8,0.4-3.9,1.2L27,32.2c0.4-0.9,0.7-2,0.7-3c0-4-3.2-7.2-7.2-7.2s-7.2,3.2-7.2,7.2c0,1.3,0.3,2.5,0.9,3.5l-7.5,7.5
		c-0.8,0.8-0.8,2,0,2.8C7,43.3,7.6,43.5,8.1,43.5z"/>
	<path class="st0" d="M85,3.6H5c-2.7,0-5,2.2-5,5v56.5c0,2.7,2.2,5,5,5h32.3v6.9h-11c-2.6,0-4.7,2.1-4.7,4.7v2.8c0,1.1,0.9,2,2,2
		h42.8c1.1,0,2-0.9,2-2v-2.8c0-2.6-2.1-4.7-4.7-4.7h-11v-6.9H85c2.7,0,5-2.2,5-5V8.6C90,5.8,87.8,3.6,85,3.6z M5,7.6h80
		c0.5,0,1,0.4,1,1v45.9H4V8.6C4,8,4.4,7.6,5,7.6z M64.4,81.6v0.8H25.6v-0.8c0-0.4,0.3-0.7,0.7-0.7h13h11.4h13
		C64.1,80.9,64.4,81.2,64.4,81.6z M48.7,76.9h-7.4v-6.9h7.4V76.9z M85,66.1H50.7H39.3H5c-0.5,0-1-0.4-1-1v-6.6h82v6.6
		C86,65.6,85.6,66.1,85,66.1z"/>
</g>
</svg>
