<?xml version="1.0" encoding="utf-8"?>
<!-- Generator: Adobe Illustrator 21.1.0, SVG Export Plug-In . SVG Version: 6.00 Build 0)  -->
<svg version="1.1"
	 id="Layer_1" xmlns:cc="http://creativecommons.org/ns#" xmlns:dc="http://purl.org/dc/elements/1.1/" xmlns:inkscape="http://www.inkscape.org/namespaces/inkscape" xmlns:rdf="http://www.w3.org/1999/02/22-rdf-syntax-ns#" xmlns:sodipodi="http://sodipodi.sourceforge.net/DTD/sodipodi-0.dtd" xmlns:svg="http://www.w3.org/2000/svg"
	 xmlns="http://www.w3.org/2000/svg" xmlns:xlink="http://www.w3.org/1999/xlink" x="0px" y="0px" viewBox="0 0 24 24"
	 style="enable-background:new 0 0 24 24;" xml:space="preserve">
<style type="text/css">
	.st0{fill:#FFFFFF;}
</style>
<g transform="translate(0,-952.36218)">
	<path class="st0" d="M12,954.2c-1.8,0-3.2,1.5-3.2,3.2c0,0.9,0.3,1.7,0.9,2.2c-0.9,0.4-1.6,1-2.2,1.7c-0.1-0.1-0.3-0.2-0.4-0.3
		c0.3-0.4,0.5-0.9,0.5-1.4c0-1.4-1.1-2.5-2.5-2.5s-2.5,1.1-2.5,2.5c0,0.5,0.2,1.1,0.5,1.5c-1.3,0.7-2.2,2.1-2.2,3.7
		c0,0.4,0.3,0.7,0.7,0.7h6.9H17h5.5c0.4,0,0.7-0.3,0.7-0.7c0-1.6-0.9-3-2.2-3.7c0.3-0.4,0.5-0.9,0.5-1.5c0-1.4-1.1-2.5-2.5-2.5
		s-2.5,1.1-2.5,2.5c0,0.5,0.2,1,0.5,1.4c-0.1,0.1-0.3,0.2-0.4,0.3c-0.6-0.7-1.3-1.3-2.2-1.7c0.6-0.6,0.9-1.4,0.9-2.2
		C15.2,955.7,13.8,954.2,12,954.2z M12,955.7c1,0,1.7,0.8,1.7,1.7c0,1-0.8,1.7-1.7,1.7s-1.7-0.8-1.7-1.7
		C10.3,956.5,11,955.7,12,955.7z M5.1,958.7c0.5,0,1,0.4,1,1c0,0.5-0.4,1-1,1s-1-0.4-1-1C4.1,959.1,4.5,958.7,5.1,958.7z
		 M18.9,958.7c0.5,0,1,0.4,1,1c0,0.5-0.4,1-1,1s-1-0.4-1-1C18,959.1,18.4,958.7,18.9,958.7z M12,960.7c2.1,0,3.8,1.5,4.1,3.5H8.5
		H7.9C8.2,962.2,9.9,960.7,12,960.7z M5.1,962.2c0.8,0,1.2,0.1,1.7,0.5c-0.2,0.5-0.3,1-0.4,1.5H2.5C2.8,963,3.8,962.2,5.1,962.2z
		 M18.9,962.2c1.2,0,2.3,0.8,2.6,2h-3.9c-0.1-0.5-0.2-1-0.4-1.5C17.7,962.3,18.2,962.2,18.9,962.2z M5.1,966.6
		c-1.4,0-2.5,1.1-2.5,2.5c0,0.4,0.3,0.7,0.7,0.7s0.7-0.3,0.7-0.7v0c0-0.5,0.4-1,1-1c0.4,0,0.7,0.1,0.8,0.1c0.1,0.1,0.2,0.2,0.2,0.8
		c0,0.2,0,0.2-0.1,0.2c-0.1,0.1-0.3,0.1-0.5,0.2c-0.2,0.1-0.6,0.2-0.9,0.3s-0.7,0.6-0.7,1.2v0.7c0,0.4,0.3,0.7,0.7,0.7
		c0.4,0,0.7-0.3,0.7-0.7v0v-0.6c0.1,0,0.3-0.1,0.6-0.2c0.3-0.1,0.7-0.2,1-0.5c0.3-0.3,0.6-0.8,0.6-1.4c0-0.9-0.3-1.6-0.8-2
		C6.2,966.7,5.6,966.6,5.1,966.6L5.1,966.6z M9.4,966.6c-0.4,0-0.7,0.4-0.7,0.8c0,0.4,0.4,0.7,0.8,0.7l0,0H21c0.4,0,0.7-0.3,0.7-0.7
		s-0.3-0.7-0.7-0.7h0H9.4C9.5,966.6,9.5,966.6,9.4,966.6z M9.4,969.9c-0.4,0-0.7,0.4-0.7,0.8c0,0.4,0.4,0.7,0.8,0.7l0,0h11.4
		c0.4,0,0.7-0.3,0.7-0.7c0-0.4-0.3-0.7-0.7-0.7h0H9.4C9.5,969.9,9.5,969.9,9.4,969.9L9.4,969.9z M4.6,973.1c-0.4,0-0.7,0.3-0.7,0.7
		s0.3,0.7,0.7,0.7c0.4,0,0.7-0.3,0.7-0.7S5,973.1,4.6,973.1z M9.4,973.1c-0.4,0-0.7,0.4-0.7,0.8c0,0.4,0.4,0.7,0.8,0.7l0,0h11.4
		c0.4,0,0.7-0.3,0.7-0.7s-0.3-0.7-0.7-0.7h0H9.4C9.5,973.1,9.5,973.1,9.4,973.1L9.4,973.1z"/>
</g>
</svg>
