<?xml version="1.0" encoding="utf-8"?>
<!-- Generator: Adobe Illustrator 18.0.0, SVG Export Plug-In . SVG Version: 6.00 Build 0)  -->
<!DOCTYPE svg PUBLIC "-//W3C//DTD SVG 1.1//EN" "http://www.w3.org/Graphics/SVG/1.1/DTD/svg11.dtd">
<svg version="1.1" id="Layer_1" xmlns="http://www.w3.org/2000/svg" xmlns:xlink="http://www.w3.org/1999/xlink" x="0px" y="0px"
	 viewBox="0 0 566.9 566.9" enable-background="new 0 0 566.9 566.9" xml:space="preserve">
<g>
	<path fill="#013838" d="M176.1,78c2.7-9.7,1.2-22.5-1.3-34.6l-1-5l4.4,2.7c3.1,1.9,5.9,3.9,8.6,5.9c24.1,18.3,34.8,42.8,35.9,68
		c1.1,25.1-7.2,50.8-20.9,71.9c-1.9,3-3.8,5.7-6,8.5c3.1,2.7,8.2,4.6,12.3,6.1c-8.8,9-19.7,14.4-33.7,16.9
		c-0.7,9.6,1.1,19.7,4.5,29.1c3.3,9.2,8.4,18.3,14.8,27c0.6-5.8,2-11.6,3.9-17.3c2.8-8.6,6.9-16.8,11.6-24.3
		c10.2-16.5,16.1-27.4,17.8-38.7c1.8-11.3-0.5-23.2-6.7-41.8l-1.2-3.6l3.8,0.8c12.3,2.6,22.7,8.8,30.9,16.6
		c7.8,7.4,13.6,16.3,17.1,24.8c4.2-14.2,6.9-29.3,6.6-46.3c-0.4-19.6-4.7-41.7-15-67.9c-7-19.8-17.2-45.5-26.5-62.3
		c34.3,24.8,56.6,44.5,80.6,79.4c20.4,29.7,35.4,62.5,44.9,97.6c9.9-8.7,19.6-17.8,28-29.7c18.2-25.8,28.5-72.9,33.1-104.4
		c18,38.1,28,60.5,32.3,103.5c1.6,16.6,1.6,32.8,0.1,48.5c-1.7,17.4-4.9,33.7-9.8,49.7c-4.2,13.5-9.6,26.8-16.4,40.2
		c47.3-32,67.1-79.7,83.4-131.4c7.6,49.8,5.7,98.2-13.8,152.7c-16,44.7-42.3,85.6-78.5,119.4c50.7,5.3,86.5,1.5,134.6-13.7
		c-23.5,31.9-44,49.8-77.6,71.1c-23.5,14.9-46.9,25.8-71.3,33.8c-37.7,12.4-77.8,17.8-124.5,20.4c-28.9,1.6-57.9,1.9-84.6,2.2
		c-12.3,0.1-24.6,0.3-36.9,0.3c-34.7,0-68.1-0.9-92.8-2.1c-25.9-1.3-42.7-3.7-42.7-6.4v0l0,0c0-4.6,6-5.1,16.7-6.1
		c1-0.1,2.1-0.2,3.2-0.3l0,0c-1.6-2.7-2.5-5.3-2.7-7.7c-0.2-2.5,0.2-4.8,1.2-7.2c3.8-8.7,15.8-14.3,23.7-17.7h0l0,0l0,0
		c6.7-2.8,18.5-8.5,22.5-14.3c1.4-2,2.4-4.5,3.8-8.1c5.7-14.8,4.9-29.7,1.2-43.9c-3.8-14.3-10.6-28-16.6-40.2
		c-6-12-11.1-24-16.3-36.2l-1.7-4c-5.6-7.1-10.4-14.4-14.2-22.2c-3.8-7.9-6.4-16.5-7.3-26c-1.4-15.4,2-28.4,5.8-42.5
		c0.3-1.3,0.7-2.8,1.4-5.5l1.4-5.4l2.7,4.9c2.9,5.2,5.3,9.3,7.8,13c2.1,3,4.2,5.8,7,8.9c4.2-7.9,7.8-17.1,10.7-26.6
		c3.5-11.7,5.8-23.7,6.7-34.3l0.3-3.9c-4.7-5.2-13.5-7.4-22.7-9.8c-8.2-2.1-16.8-4.3-23.8-8.8c-3.7-2.3-7.8-5.3-11.6-8.8
		c-3-2.8-5.8-5.9-7.9-9.4c-1.3-2.1-2.3-4.4-3.1-6.8h0c-1.5-4.7-1.8-9.8-0.7-14.4c1.2-4.7,3.9-8.9,8.4-11.6c1.3-0.8,2.8-1.4,4.5-1.9
		l0,0c5-1.5,10.3-2.1,15.4-2.6c4.4-0.5,8.8-1,12.8-2l0.7-0.2c1.8-0.6,3.6-1.2,5.1-2.1c1.6-0.8,3-1.7,4.4-2.8
		c1.5-1.1,2.9-2.4,4.2-3.7c1.4-1.3,2.7-2.8,3.9-4.3c6.1-7.2,12.9-13.9,19.7-20.5c5.3-5.2,10.6-10.4,15.5-15.8c2.7-3,5.7-6.4,8.3-10
		c2.6-3.5,4.8-7.2,6.1-10.9c1.1-3.1,1.7-6.3,1.7-9.9c-0.1-3.6-0.8-7.5-2.2-11.9l-1.4-4.4l4.4,1.7c9.1,3.6,17.1,10.4,22.8,18.6
		c5.6,7.9,9.1,17.1,9.8,25.7C167.6,92.9,173.7,86.7,176.1,78L176.1,78z"/>
	<path fill-rule="evenodd" clip-rule="evenodd" fill="#99CCCC" d="M185.2,192.2c35.8-42.8,37.6-103.4,2-133.5
		c4.4,22.6-2.8,39.9-27.8,44.2c-41.8,1.5-57,2.7-83.5,34c-5.9,7-11.4,12.9-21.7,15.8c-8.9,2.6-21.1,1.6-28.2,6.2
		c-5.6,3.5-7,8.5-4.6,14.7c2.5,6.3,8.5,12.6,12.9,16.1c7.7,6.2,18.5,10.3,31.1,13.5c9.9,2.5,17.2,4.7,25,11.2
		c12.2,10.2,17.2,20.3,18.9,30c-2.7-3.9-7.2-13-18.9-20.2c-2.8,31.1-13.8,58.7-26.1,76.3c-6.2-3.2-10.6-8.9-15.2-16.8
		c-14.8,61.9,42.4,83.3,71,137.9c10,19.1,16,34.5,12.7,56.1c-0.7,4.2-1.1,8.3-2.2,12.3c-4.2,15.5-8.6,21.7-23.3,30.3
		c-4.6,2.7-9.5,4.1-12.2,8.9c-2.2,3.9-2,6.6-1.3,8.2c0.8,1.8,2.6,2.5,6.7,2.7c2.4,0.2,4.9,0.3,7.4,0.4c13.3,0.7,6.3-0.8,12.6-10.3
		c2.2-3.4,5.7-6.2,10.2-9c-8.7,11-12.9,22.2,6.9,21.4c9.9-0.4,13.4-3.5,14.7-12.9c0.4-3.3,0.7-7.7,0.8-12.3
		c0.3-11,0.1-21.8,0.6-32.8c2.4-45.5,13.7-106.4,20.3-127.4c1.3,10-0.4,19.2,3.6,34.9c12.2-12.7,25.6-16.6,34.1-19
		c-45,32.8-61.5,79.8-20.1,122.9c3.8,3.9,12.6,9.1,19,11.9c-8.6,0.3-28.4-9.3-33.3-13.5c-4.9,4.3-8.1,8.2-17.4,8.7
		c-0.5,7.7,1.7,23-3,36.5c60.6-0.9,106.5-23.5,110.1-86.5c2.5-42.3-19.9-85.1-44.3-118c-33.3-44.8-65.5-85.2-57.7-118.3
		c-8.3,0.1-27-2.3-38.7-6.2c17.6-0.4,43.3-0.3,57.5-8.6c-15.2-13.3-27.8-29.2-27.2-40.9C163.2,177.1,173.2,186.6,185.2,192.2
		L185.2,192.2z"/>
	<path fill-rule="evenodd" clip-rule="evenodd" fill="#C1E8E8" d="M188.3,59.6c-0.4-0.3-0.7-0.6-1.1-0.9
		c4.4,22.6-2.8,39.9-27.8,44.2c-41.8,1.5-57,2.7-83.5,34c-3.2,3.8-6.4,7.3-10.2,10.2c15.1-8.9,27-24.4,50.6-32.1
		c26.2-8.6,74.8,3.3,75.4-37.3C191.8,71.6,190.6,65.6,188.3,59.6L188.3,59.6z"/>
	<path fill-rule="evenodd" clip-rule="evenodd" fill="#C1E8E8" d="M255,496.1c6.8-11.6,10.9-25.8,11.9-43
		c2.5-42.3-19.9-85.1-44.3-118c-21.1-28.4-41.8-55.1-52.1-79.2c12.8,48.1,53.4,81.6,73.7,130.2C258.8,421,266.7,458.8,255,496.1
		L255,496.1z"/>
	<path fill-rule="evenodd" clip-rule="evenodd" fill="#699C9C" d="M185.2,192.2c35.4-42.4,37.6-102.3,2.9-132.7
		c13.8,27.9,16.7,59.3,5.7,89.5c-7.6,20.9-18.2,18.8-37.1,12.6c0.2,0.4,0.4,0.9,0.6,1.3c3.4,7.7,8.4,15.1,14.8,20.8
		C175.9,187,180.2,189.9,185.2,192.2L185.2,192.2z M169.5,253.5c-5.2-13-7.3-25.3-4.6-36.7c-8,0.1-25.4-2.1-37.2-5.7
		C136.5,225.9,150.9,239.9,169.5,253.5L169.5,253.5z"/>
	<path fill-rule="evenodd" clip-rule="evenodd" fill="#699C9C" d="M93.5,533.7c-0.2,1.5,0,2.7,0.4,3.6c0.8,1.8,2.6,2.5,6.7,2.7
		c2.4,0.2,4.9,0.3,7.4,0.4c13.3,0.7,6.3-0.8,12.6-10.3c2.2-3.3,5.5-6.1,9.8-8.8l0.3-0.5c-3.6,0.2-7.3,2.1-10.9,4.9
		c-8.3,6.7-5.2,7.9-17.6,8.2C99.1,534.2,96.3,534,93.5,533.7L93.5,533.7z M129.7,522.3c-8.1,10.6-11.3,21,7.8,20.2
		c9.9-0.4,13.4-3.5,14.7-12.9c0.4-3.3,0.7-7.7,0.8-12.3c0.3-11,0.1-21.8,0.6-32.8c2.3-43.7,12.8-101.5,19.4-124.6
		c-23.2,38.8-25.3,107.6-35.2,144.8c1.4,5.9,3.5,28-4.4,28.4C125.7,533.4,127.1,527.1,129.7,522.3L129.7,522.3z M174,358.3
		c1,9.6-0.4,18.7,3.5,33.8c12.2-12.7,25.6-16.6,34.1-19c-45,32.8-61.5,79.8-20.1,122.9c3.8,3.9,12.6,9.1,19,11.9
		c-8.6,0.3-28.4-9.3-33.3-13.5c-4.9,4.3-8.1,8.2-17.4,8.7c-0.5,7.7,1.7,23-3,36.5c5.6-0.1,11-0.3,16.3-0.8
		c4.9-7.1,11.8-17.8,10-27.2c13.8,1.1,21.1-0.8,28.8-3.3c-36.4-39.2-42.7-92.7,0.1-135.4c-2.2,0.2-7.4,1.7-13.1,2.4
		c-9.6,1.3-17.2,0.6-21.9-8.6C175.8,364.2,174.8,361.3,174,358.3L174,358.3z"/>
	<path fill-rule="evenodd" clip-rule="evenodd" fill="#FFFFFF" d="M130.1,491.6c-4.1,14.2-8.7,20.2-22.8,28.5
		c-4.6,2.7-9.5,4.1-12.2,8.9c-2.2,3.9-2,6.6-1.3,8.2c0.8,1.8,2.6,2.5,6.7,2.7c2.4,0.2,4.9,0.3,7.4,0.4c13.3,0.7,6.3-0.8,12.6-10.3
		c2.2-3.4,5.7-6.2,10.2-9c-8.7,11-12.9,22.2,6.9,21.4c9.9-0.4,13.4-3.5,14.7-12.9c0.4-3.3,0.7-7.7,0.8-12.3
		c0.3-8.6,0.2-17.1,0.4-25.6c-1-3.2-2.3-6.4-3.9-9.4c-2.8,6.7-6.9,12.8-12.3,18.2c0.3-6.2-0.3-11.8-2-16.8
		C133.6,486.6,131.9,489.2,130.1,491.6L130.1,491.6z"/>
	<path fill-rule="evenodd" clip-rule="evenodd" fill="#E6E6E6" d="M93.5,533.7c-0.2,1.5,0,2.7,0.4,3.6c0.8,1.8,2.6,2.5,6.7,2.7
		c2.4,0.2,4.9,0.3,7.4,0.4c13.3,0.7,6.3-0.8,12.6-10.3c2.2-3.3,5.5-6.1,9.8-8.8l0.3-0.5c-3.6,0.2-7.3,2.1-10.9,4.9
		c-8.3,6.7-5.2,7.9-17.6,8.2C99.1,534.2,96.3,534,93.5,533.7L93.5,533.7z M129.7,522.3c-8.1,10.6-11.3,21,7.8,20.2
		c9.9-0.4,13.4-3.5,14.7-12.9c0.4-3.3,0.7-7.7,0.8-12.3c0.3-8.6,0.2-17.1,0.4-25.6c-1-3.2-2.3-6.4-3.9-9.4
		c-2.3,5.5-5.4,10.5-9.4,15.2c-0.7,2.4-1.4,4.8-2.1,7.1c1.4,5.9,3.5,28-4.4,28.4C125.7,533.4,127.1,527.1,129.7,522.3L129.7,522.3z"
		/>
	<path fill-rule="evenodd" clip-rule="evenodd" fill="#FFFFFF" d="M20.9,164.9c-0.9,2.6-0.7,5.4,0.6,8.6c2.5,6.3,8.5,12.6,12.9,16.1
		c7.7,6.2,18.5,10.3,31.1,13.4c9.9,2.5,17.2,4.7,25,11.2c12.2,10.2,17.2,20.3,18.9,30c-2.7-4-7.2-13-18.9-20.3
		c-2.8,31.1-13.8,58.7-26.1,76.3c-6.2-3.2-10.6-8.9-15.2-16.8c-14.8,61.9,42.4,83.3,71,137.9c3.3,6.3,6.2,12.2,8.4,18.1
		c-1.3-27.3-11.2-44.6-20.5-60.5c-14.3-24.5-20.7-47.8-16.4-74.3c2.5-15.5,7.9-30,10.2-46.2c4.4,3.7,9.8,12,11.8,17.7
		c16.9-54.9-13.8-71.9-15.2-81.5c11.8,1.8,30.2-5.5,35.7-16.4c3.1-6,1.2-9.8-1.8-11.3c-4.7-2.3-13.2,0.2-18,1.2
		C100,171,87.9,173,73,173.5C48,174.3,23,171.5,20.9,164.9L20.9,164.9z"/>
	<path fill-rule="evenodd" clip-rule="evenodd" fill="#E6E6E6" d="M30.5,186.2c1.3,1.3,2.6,2.5,3.8,3.4c7.7,6.2,18.5,10.3,31.1,13.4
		c9.9,2.5,17.2,4.7,25,11.2c10.2,8.5,15.3,16.9,17.7,25.1c-3.8-22.6-13.4-32.9-22.1-37.2C72.3,195.4,54.8,201.8,30.5,186.2
		L30.5,186.2z M106.1,239.1c-3-4.4-7.6-10.2-15.6-15.1c-0.7,7.9-2,15.7-3.6,23.1C89.9,241.3,95.7,234.5,106.1,239.1L106.1,239.1z
		 M49.5,284l-0.3-0.6c-14.8,61.9,42.4,83.3,71,137.9l0.1,0.2C98.2,362.1,52.1,337.3,49.5,284L49.5,284z"/>
	<path fill-rule="evenodd" clip-rule="evenodd" fill="#FFFFFF" d="M128.6,210.5c17.4-0.4,41.6-0.6,55.2-8.6
		c-14.7-13-27.1-28.3-27.2-39.9c-0.7,5,2.3,20.3,11.8,34.4c-6-1.1-11.9-4.1-16.6-7.6c0.7,2.4,2.4,6.6,11.7,12.3
		C150.7,206.2,141.1,208.2,128.6,210.5L128.6,210.5z"/>
	<path fill-rule="evenodd" clip-rule="evenodd" fill="#99CCCC" d="M87,530.4c-2.9,7.1,1.7,8.2-6.7,8.7c-7,0.4-10.5-0.9-11.6-3.7
		c-1.4-3.3,0.5-8.7,8.4-15.1c-4.9,1.8-9.7,4.6-12.9,9.7c-2.1,3.3-2.1,5.6-3.8,6.5c-3.2,1.5-6.9-0.8-8.6-3.7c-2.8-4.7-0.6-7,3.3-10.3
		c5.7-4.8,14.2-7.3,21-10.8c7.1-3.6,14.4-8.1,19-12.8c28-45.7-4.4-90.3-17.6-121.1c10.5,12.8,24.5,29.1,34,46.5
		c11.7,21.4,16.7,44.3,10.4,67.2c-3.3,12.1-11.3,17.3-19.5,23.3C97.5,518.5,89.3,524.8,87,530.4L87,530.4z"/>
	<path fill-rule="evenodd" clip-rule="evenodd" fill="#FFFFFF" d="M87,530.4c-2.9,7.1,1.7,8.2-6.7,8.7c-7,0.4-10.5-0.9-11.6-3.7
		c-1.4-3.3,0.5-8.7,8.4-15.1c-4.9,1.8-9.7,4.6-12.9,9.7c-2.1,3.3-2.1,5.6-3.8,6.5c-3.2,1.5-6.9-0.8-8.6-3.7c-2.8-4.7-0.6-7,3.3-10.3
		c5.7-4.8,14.2-7.3,21-10.8c7.1-3.6,14.4-8.1,19-12.8c1-1.7,1.9-3.3,2.8-5c2.6-2.3,5.2-5.2,7.8-9.3c1.2,4.6,1.3,9.3,0.5,13.9
		c4.8-2.1,8.9-5.5,11.8-11.5c1,3.1,1.6,6.3,2,9.6c-3.9,8.6-10.7,13.1-17.7,18.2C97.5,518.5,89.3,524.8,87,530.4L87,530.4z"/>
	<path fill-rule="evenodd" clip-rule="evenodd" fill="#E6E6E6" d="M87,530.4c-2.9,7.1,1.7,8.2-6.7,8.7c-7,0.4-10.5-0.9-11.6-3.7
		c-1.4-3.3,0.5-8.7,8.4-15.1c-4.9,1.8-9.7,4.6-12.9,9.7c-2.1,3.3-2.1,5.6-3.8,6.5c-3.2,1.5-6.9-0.8-8.6-3.7
		c-1.1-1.8-1.4-3.3-1.2-4.6c2.4,0.7,4.9,0.8,7.7-0.2c6.2-5,14-9.9,23.6-14.9c-2.6,3.4-4.3,6.7-4.9,10.1c14.1-7.2,33.9-19,39.9-34.3
		c0.4-0.6,0.7-1.3,1-1.9c1,3.1,1.6,6.3,2,9.6c-3.9,8.6-10.7,13.1-17.7,18.2C97.5,518.5,89.3,524.8,87,530.4L87,530.4z"/>
	<path fill-rule="evenodd" clip-rule="evenodd" fill="#99CCCC" d="M261,505.8c25.4-50.1,22.5-105.5-27.5-173.1
		c1.4-98.5,103.6-136.4,23.7-291.8C401.7,179,388.1,378,261,505.8L261,505.8z"/>
	<path fill-rule="evenodd" clip-rule="evenodd" fill="#C1E8E8" d="M233.9,333.2l-0.4-0.6c1-71,54.4-110.6,54.2-185.4l14.6-2.7
		c-3,19.6-8.7,40.9-17,59.9C266.9,246,244,286.8,233.9,333.2L233.9,333.2z"/>
	<path fill-rule="evenodd" clip-rule="evenodd" fill="#699C9C" d="M262.1,503.5c23.9-49,20.7-103-27-168.7
		c12.3,5.4,23.7,10.2,34.9,18.1c33.5,24,34.7,23,50.2-19.6c38.1-104.9-6.4-215.2-62.4-292c143.2,137.5,130.4,334.8,5.2,462.5
		L262.1,503.5z"/>
	<path fill-rule="evenodd" clip-rule="evenodd" fill="#558585" d="M262.1,503.5c21.3-43.8,21.1-91.5-13.2-148
		c15.8,15.9,25.3,33.3,30.8,51.6c6.3,20.9,2.6,55.3,27.1,31.3c7.2-7,14.3-15.9,21.4-26.5c-16.2,33.1-38.1,64.2-65.3,92L262.1,503.5z
		"/>
	<path fill-rule="evenodd" clip-rule="evenodd" fill="#FFFFFF" d="M282.8,186.1c9.3-36.7,7.4-80.9-25.7-145.3
		c47.6,45.5,78.1,97.6,93,151.5c-5.9-13.4-12.7-26.8-25-39.2c2,14.9-1.5,27.9-7.4,40.2c-2.9-15.4-7.5-31.2-15.7-47.9
		c-2.3,19.9-8.7,38.9-16.2,57.5C285.1,197.4,284.2,191.7,282.8,186.1L282.8,186.1z"/>
	<path fill-rule="evenodd" clip-rule="evenodd" fill="#E6E6E6" d="M257.7,41.4c47.3,45.4,77.5,97.2,92.4,151
		c-5.9-13.4-12.7-26.8-25-39.2c1.2,8.5,0.5,16.4-1.4,24C309.3,125.4,284.5,78,257.7,41.4L257.7,41.4z"/>
	<path fill-rule="evenodd" clip-rule="evenodd" fill="#99CCCC" d="M248.8,522.6c54.2-41.9,102-108.1,113.8-178
		c57.8-25.4,113.3-39.8,144.2-138.8C502.6,388.2,380,480.8,248.8,522.6L248.8,522.6z"/>
	<path fill-rule="evenodd" clip-rule="evenodd" fill="#C1E8E8" d="M366.5,342.9c37.7-16.3,74.1-28.8,103.2-64.2l0.2,17.8
		c-27.2,27-69.8,39.9-103.5,46.5L366.5,342.9z"/>
	<path fill-rule="evenodd" clip-rule="evenodd" fill="#699C9C" d="M362.6,344.6l0.1,0l0.1-0.1l0.1,0l0.2-0.1l0.1-0.1l2-0.8l0.1-0.1
		l0.1,0l0.1,0l0.1,0l0.1,0l0.1,0l0.1-0.1l0.1,0l0.1-0.1l0.1,0l0.4-0.2l0.1-0.1l0.1,0l0.7-0.3l0.1-0.1l0.1,0l0.1,0l0.1-0.1l0.1,0
		l0.1-0.1l0.1,0l0.1,0l0.1-0.1l0.1,0l0,0l0.1-0.1c3.8,10.9,7.7,20.2,10.2,29.8c0.7,2.8,1.3,5.1,1.8,7.1c5.2,19.4,23.8,11.3,34.8,1.2
		c44.2-40.5,70.8-88.8,90.6-150.7c-13.9,166.6-131.4,252.9-256.8,292.8C303,480.7,350.7,414.5,362.6,344.6L362.6,344.6z"/>
	<path fill-rule="evenodd" clip-rule="evenodd" fill="#558585" d="M322.5,442.6c-0.7,4.8-1.5,9.6-2.9,13.6
		c-5.2,14.4-21.9,37.8,4.2,33c2.2-0.4,4.9-0.8,7.7-1.2c-26.4,14.2-54.4,25.5-82.7,34.6C276.3,501.3,302.1,473.8,322.5,442.6
		L322.5,442.6z"/>
	<path fill-rule="evenodd" clip-rule="evenodd" fill="#FFFFFF" d="M467.2,281.7c15.5-17.9,29-41.9,39.6-75.9
		c-0.8,36.4-6.1,69-15,98.1c-5.7,3.8-11.7,6.8-18,8.8c6.3-12,10.3-23.9,11.3-35.9c-7.2,12.6-14.4,20.1-21.6,26.4
		C465.5,296,466.9,288.8,467.2,281.7L467.2,281.7z"/>
	<path fill-rule="evenodd" clip-rule="evenodd" fill="#E6E6E6" d="M505.6,229.5c-2.2,27-6.8,51.7-13.8,74.4
		c-5.7,3.8-11.7,6.8-18,8.8c5.3-10.2,9.1-20.4,10.7-30.7C492.9,265,500,247.4,505.6,229.5L505.6,229.5z"/>
	<path fill-rule="evenodd" clip-rule="evenodd" fill="#699C9C" d="M408.8,448.4c-52.9,49.3-133.8,77.8-198.5,90
		c109,9.7,224.2-9.2,317.9-95.9C487.5,455.2,455.6,454.9,408.8,448.4L408.8,448.4z"/>
	<path fill-rule="evenodd" clip-rule="evenodd" fill="#558585" d="M525.3,445c-29,15.9-61.3,30.2-93.4,39.7
		c-28.4,8.4-40.1,11.9-25.1-16.1c3.4-6.3,6.2-12.7,8.4-19.3l-0.1,0H415l-0.2,0l-0.1,0h-0.1l-0.1,0h-0.1l-0.1,0h-0.1l-0.1,0H414
		l-0.1,0h-0.1l-0.1,0h-0.1l-0.1,0h-0.1l-0.1,0h-0.1l-0.1,0h0H413l-0.1,0h-0.1l-0.1,0h-0.1l-0.1,0h-0.1l-0.1,0l-0.2,0H412l-0.2,0
		l-0.1,0h-0.1l-0.1,0h-0.1l-0.1,0h-0.1l-0.1,0l-0.1,0h0h-0.1l-0.1,0h-0.1l-0.1,0h-0.1l-0.1,0h-0.1l-0.1,0h-0.1l-0.1,0h-0.1l-0.1,0
		h-0.1l-0.1,0h-0.1l-0.1,0h-0.1l-0.1,0h-0.1l-0.1,0l-0.1,0h-0.1c-52.9,49.3-133.8,77.8-198.5,90C318.3,548,432.2,529.6,525.3,445
		L525.3,445z"/>
	<path fill-rule="evenodd" clip-rule="evenodd" fill="#497878" d="M326.3,536.3c-25.5-7.5-17.6-14.9,3.3-28.8
		c10.3-6.8,19.8-14.3,28.8-22.3c-46.8,27.3-101.6,44.4-148.1,53.2C248.6,541.8,287.6,541.6,326.3,536.3L326.3,536.3z"/>
	<path fill-rule="evenodd" clip-rule="evenodd" fill="#FFFFFF" d="M476,483.7c17.4-11.5,34.8-25.2,52.2-41.3
		c-17,5.3-32.4,8.4-48,9.7c-4.5,3.1-9.2,5.8-14.1,8.3c6.9,2.1,14.7,2.6,23.6,1.4c-10.9,10-23.4,15.4-36.3,19.6
		C460.8,482.9,468.4,483.7,476,483.7L476,483.7z"/>
	<path fill-rule="evenodd" clip-rule="evenodd" fill="#E6E6E6" d="M476,483.7c16.5-10.9,33-23.8,49.4-38.8
		c-12.3,6.8-25.3,13.3-38.6,19.2c-10.3,8.5-21.8,13.4-33.6,17.3C460.8,482.9,468.4,483.7,476,483.7L476,483.7z"/>
	<path fill-rule="evenodd" clip-rule="evenodd" fill="#699C9C" d="M225.8,325.6c-2-29.2,19.8-74.5,40.1-114
		c-4.5-21.2-12.1-32.6-32.3-47.5c25.3,50-33.8,80-31.3,126C207.7,301.4,215.7,312.3,225.8,325.6L225.8,325.6z"/>
	<path fill-rule="evenodd" clip-rule="evenodd" fill="#558585" d="M225.8,325.6c-2-29.2,19.8-74.5,40.1-114
		c-4.2-19.9-11.2-31.2-28.7-44.8c18.4,24,15.9,46.2-3,77.2c-3.6,5.9-6.4,12.3-8.9,19.1c-5.8,15.2-5.8,26.6-22.9,25.8
		c0,0.4,0,0.8,0,1.2C207.7,301.4,215.7,312.3,225.8,325.6L225.8,325.6z"/>
	<path fill-rule="evenodd" clip-rule="evenodd" fill="#FFFFFF" d="M258.5,226.1c2.3-4.6,4.7-9.2,7-13.7l0.3-1
		c-4.5-21-12.1-32.4-32.2-47.2c12.4,24.6,4.5,44.3-6.5,63.5c5.1-3.2,10.1-6.8,14.6-12.7c0.6,6.7,0.2,13.4-0.5,20.1
		c4.9-5.5,9.2-12.1,12.8-20.1C256.2,218.3,257.7,222,258.5,226.1L258.5,226.1z"/>
	<path fill-rule="evenodd" clip-rule="evenodd" fill="#E6E6E6" d="M258.5,226.1c2.3-4.6,4.7-9.2,7-13.7l0.3-1
		c-4.2-19.7-11.2-31-28.7-44.5c15.6,20.3,16.2,39.5,4.4,63.7c-0.1,1.5-0.3,3.1-0.4,4.6c4.9-5.5,9.2-12.1,12.8-20.1
		C256.2,218.3,257.7,222,258.5,226.1L258.5,226.1z"/>
	<path fill-rule="evenodd" clip-rule="evenodd" fill="#699C9C" d="M365.7,333.6c5.8-42,6.3-84.8-3.3-130.3
		c27.5-23.9,54.8-46.5,63.5-117.8c32.9,89.1,21.5,160.5-19.8,229.6C392.3,321.1,379.5,327.4,365.7,333.6L365.7,333.6z"/>
	<path fill-rule="evenodd" clip-rule="evenodd" fill="#558585" d="M365.7,333.6c5.8-42,6.3-84.8-3.3-130.3c3.4-2.9,6.8-5.9,10.2-8.9
		c4.4,9.4,8.1,18.9,11.3,28.4c10.3,30.9,18.8,25,27.8-2.2c13.9-41.8,19.6-86,13.9-131.9c0.1-1.1,0.3-2.1,0.4-3.2
		c32.9,89.1,21.5,160.5-19.8,229.6C392.3,321.1,379.5,327.4,365.7,333.6L365.7,333.6z"/>
	<path fill-rule="evenodd" clip-rule="evenodd" fill="#FFFFFF" d="M406.2,153.5c8.9-16.5,16-38,19.7-68.2
		c12.8,34.6,18.9,66.5,19.1,96.7c-2.3-9.3-5.2-18.4-9-27c-1.5,14.1-6.7,25.2-14.7,35.5c2.8-17.3,5.3-34.5,1.5-51.8
		c-5.5,13.2-11.9,21.9-18.7,28.8C405.1,162.9,405.9,158.2,406.2,153.5L406.2,153.5z"/>
	<path fill-rule="evenodd" clip-rule="evenodd" fill="#E6E6E6" d="M425.5,88.6c0.1-1.1,0.3-2.1,0.4-3.2
		c12.8,34.6,18.9,66.5,19.1,96.7c-2.3-9.3-5.2-18.4-9-27c-1.5,14.1-6.7,25.2-14.7,35.5c1.2-7.3,2.3-14.7,2.9-22
		C428.2,142.6,428.9,115.9,425.5,88.6L425.5,88.6z"/>
	<path fill-rule="evenodd" clip-rule="evenodd" fill="#699C9C" d="M105.2,448c-4-26.7-19.5-51.1-27.7-70.2
		c10.5,12.8,24.5,29.1,34,46.5c11.7,21.4,16.7,44.3,10.4,67.2c-0.5,1.9-1.1,3.6-1.8,5.1C117.7,478.1,113,461.7,105.2,448L105.2,448z
		"/>
	<path fill-rule="evenodd" clip-rule="evenodd" fill="#699C9C" d="M101.8,152.6c-7.2-0.8-14.6-2.1-21.2-3.5
		c15.2-14.7,36.9-21.5,57.9-20.5c-2.9,5.7-6.1,11.1-10.8,15.7C118.4,153.7,114.3,153.9,101.8,152.6L101.8,152.6z"/>
	<path fill-rule="evenodd" clip-rule="evenodd" fill="#013838" d="M99.6,151.2c-6.1-0.5-12.3-1.4-17.9-2.5
		c13.2-11.4,31.7-16.9,49.5-16.3c-2.6,4.4-5.4,8.6-9.5,12.2C113.6,151.9,110.2,152.1,99.6,151.2L99.6,151.2z"/>
	<path fill-rule="evenodd" clip-rule="evenodd" fill="#FFFFFF" d="M99.2,149.1c-4.3-0.3-8.8-0.8-12.7-1.5c9.8-8,23.3-11.9,35.9-11.7
		c-2,3.1-4.2,5.9-7.2,8.4C109.1,149.4,106.7,149.6,99.2,149.1L99.2,149.1z"/>
	<path fill-rule="evenodd" clip-rule="evenodd" fill="#E6E6E6" d="M86.7,147.4c9.8-7.8,23.1-11.7,35.7-11.5
		c-0.7,1.1-1.4,2.1-2.2,3.2C108.6,138.4,96.4,141.2,86.7,147.4L86.7,147.4z"/>
	<path fill-rule="evenodd" clip-rule="evenodd" fill="#F0F0F0" d="M99.2,149.1c-4.2-0.3-8.6-0.8-12.4-1.4c4,0.4,9.9,1,14.9,0.7
		c3.9-0.2,7.1-1,10.3-3.3c2.1-1.5,4-3.5,5.8-6c0.1-0.1,0.1-0.1,0.1-0.2l4.4-3.1c-2,3.1-4.2,5.9-7.2,8.4
		C109.1,149.4,106.7,149.6,99.2,149.1L99.2,149.1z"/>
</g>
</svg>
